<?xml version="1.0" encoding="iso-8859-1"?>
<!-- Generator: Adobe Illustrator 17.0.0, SVG Export Plug-In . SVG Version: 6.00 Build 0)  -->
<!DOCTYPE svg PUBLIC "-//W3C//DTD SVG 1.1//EN" "http://www.w3.org/Graphics/SVG/1.1/DTD/svg11.dtd">
<svg version="1.1" id="Layer_2" xmlns="http://www.w3.org/2000/svg" xmlns:xlink="http://www.w3.org/1999/xlink" x="0px" y="0px"
	 width="200px" height="200px" viewBox="0 0 200 200" style="enable-background:new 0 0 200 200;" xml:space="preserve">
<path style="fill:none;stroke:#231F20;stroke-width:4;stroke-linecap:round;stroke-miterlimit:10;" d="M93.999,120.209
	c-14.492,10.466-11.633,39.065,10.097,31.75c18.714-6.299,11.258-32.704-7.097-32.75"/>
<path style="fill:none;stroke:#231F20;stroke-width:4;stroke-linecap:round;stroke-miterlimit:10;" d="M15.536,14.417
	C-3.533,35.705,37.04,49.718,47.925,34.399C59.685,17.85,31.716,9.588,19.036,13.417"/>
<path style="fill:none;stroke:#231F20;stroke-width:4;stroke-linecap:round;stroke-miterlimit:10;" d="M113.8,85.818
	c3.777,18.259,28,19.809,26.815-0.762c-0.975-16.93-21.236-17.888-23.315-0.738"/>
<path style="fill:none;stroke:#231F20;stroke-width:4;stroke-linecap:round;stroke-miterlimit:10;" d="M152.543,122.239
	c3.109,14.013,24.029,36.898,33.442,13.601c7.975-19.738-18.664-27.478-32.629-23.563c-2.325,4.19-3.156,9.378-1.813,13.962"/>
<path style="fill:none;stroke:#231F20;stroke-width:4;stroke-linecap:round;stroke-miterlimit:10;" d="M18.674,162.668
	C4.716,200.23,62.721,197.7,66.296,173.018c3.184-21.98-29.233-24.419-41.123-12.85"/>
<path style="fill:none;stroke:#231F20;stroke-width:4;stroke-linecap:round;stroke-miterlimit:10;" d="M104.613,5.518
	C43.614,29.092,124.828,73.235,127.216,28.8C127.734,19.152,112.069,10.34,104.613,5.518"/>
<path style="fill:none;stroke:#231F20;stroke-width:4;stroke-linecap:round;stroke-miterlimit:10;" d="M27.079,108.353
	c-19.94,6.777-8.632,34.121,8.908,26.49c16.28-7.082,7.98-30.407-9.408-26.49"/>
<path style="fill:none;stroke:#231F20;stroke-width:4;stroke-linecap:round;stroke-miterlimit:10;" d="M135.692,163.455
	c-19.94,6.777-8.632,34.121,8.908,26.49c16.28-7.082,7.98-30.407-9.408-26.49"/>
<path style="fill:none;stroke:#231F20;stroke-width:4;stroke-linecap:round;stroke-miterlimit:10;" d="M174.964,34.148
	c-19.94,6.777-8.632,34.121,8.908,26.49c16.28-7.082,7.98-30.407-9.408-26.49"/>
<path style="fill:none;stroke:#231F20;stroke-width:4;stroke-linecap:round;stroke-miterlimit:10;" d="M65.84,62.592
	c-19.297-5.131-29.984,22.958-11.535,30.122c17.361,6.74,35.943-21.702,13.535-29.622"/>
</svg>
