<?xml version="1.0" encoding="iso-8859-1"?>
<!-- Generator: Adobe Illustrator 17.0.0, SVG Export Plug-In . SVG Version: 6.00 Build 0)  -->
<!DOCTYPE svg PUBLIC "-//W3C//DTD SVG 1.1//EN" "http://www.w3.org/Graphics/SVG/1.1/DTD/svg11.dtd">
<svg version="1.1" id="Layer_2" xmlns="http://www.w3.org/2000/svg" xmlns:xlink="http://www.w3.org/1999/xlink" x="0px" y="0px"
	 width="200px" height="200px" viewBox="0 0 200 200" style="enable-background:new 0 0 200 200;" xml:space="preserve">
<g>
	<path style="fill:none;stroke:#231F20;stroke-width:4;stroke-linecap:round;stroke-miterlimit:10;" d="M23.093,24.936
		c-0.494,11.824-1.395,33.748-0.281,35.624c1.114,1.876,41.475-4.429,62.311-4.632c21.497-0.21,43.011-0.006,64.51,0.002
		c7.91,0.003,20.691,1.757,23.742-0.119s5.311-24.772,3.931-26.574c-1.38-1.802-38.899-1.666-57.3-1.671
		c-26.373-0.007-52.629-0.537-78.957-1.274C34.467,26.108,29.647,25.131,23.093,24.936"/>
	<path style="fill:none;stroke:#231F20;stroke-width:4;stroke-linecap:round;stroke-miterlimit:10;" d="M26.157,77.936
		c-0.499,11.02-2.658,33.315-2.412,34.657c0.246,1.343,59.705,1.758,89.603,1.646c16.059-0.06,60.642-0.304,62.315-1.804
		c1.673-1.5-0.55-33.066-1.111-34.783c-0.561-1.717-56.389,2.659-80.811,4.533c-18.276,1.402-61.717-0.99-67.687-2.48"/>
	<path style="fill:none;stroke:#231F20;stroke-width:4;stroke-linecap:round;stroke-miterlimit:10;" d="M23.679,134.269
		c-2.887,9.933-2.464,39.616-0.357,40.641s79.413-3.433,119.385-2.965c11.724,0.137,33.273,2.736,34.873,1.614
		c1.6-1.123,0.577-43.739-1.286-45.931s-87.813,4.815-131.131,7.552C37.906,135.639,30.865,135.917,23.679,134.269"/>
</g>
</svg>
