<svg version="1.1" xmlns="http://www.w3.org/2000/svg" xmlns:xlink="http://www.w3.org/1999/xlink" x="0px" y="0px"
	 width="93.057px" height="66.485px" viewBox="0 0 93.057 66.485" style="enable-background:new 0 0 93.057 66.485;"
	 xml:space="preserve">
<g style="fill: #333">
	<path d="M25.786,10.801l-4.537-6.697l-4.537,6.697H9.368L17.145,0l8.209,0l7.776,10.801H25.786z"/>
	<path d="M66.627,10.801L62.09,4.104l-4.537,6.697h-7.344L57.986,0l8.209,0l7.776,10.801H66.627z"/>
	<path d="M60.257,43.602v22.712h-4.91v-4.44c-1.537,3.159-4.397,4.568-8.112,4.611c-5.208,0-8.325-3.33-8.325-8.752V43.602h4.91
		v12.765c0,3.415,2.007,5.507,5.294,5.507c3.928-0.085,6.233-3.116,6.233-7.087V43.602H60.257z"/>
	<path d="M93.057,10.801v35.702h-5.533v-4.379c-1.828,2.983-4.908,4.619-8.998,4.619c-7.362,0-12.27-5.341-12.27-13.136
		c0-7.699,4.956-12.943,12.173-12.943c4.138,0,7.217,1.684,9.094,4.667V10.801H93.057z M87.524,33.8c0-4.956-3.224-8.42-7.843-8.42
		c-4.619,0-7.843,3.512-7.891,8.42c0.048,4.86,3.224,8.324,7.891,8.324C84.3,42.124,87.524,38.66,87.524,33.8z"/>
	<path d="M24.737,33.167c0,7.176-5.037,12.079-12.346,12.079C5.037,45.246,0,40.343,0,33.167c0-7.131,5.037-11.99,12.391-11.99
		C19.7,21.177,24.737,26.036,24.737,33.167z M5.126,33.256c0,4.591,2.986,7.711,7.265,7.711c4.234,0,7.221-3.12,7.221-7.711
		c0-4.546-2.986-7.711-7.221-7.711C8.112,25.545,5.126,28.71,5.126,33.256z"/>
	<path d="M44.752,1.441l-6.112,29.834l15.244,3.123l-1.103,5.383L31.6,35.442l7.215-35.218L44.752,1.441z"/>
</g>
</svg>
