<svg version="1.1" xmlns="http://www.w3.org/2000/svg" xmlns:xlink="http://www.w3.org/1999/xlink" x="0px" y="0px">
<rect width="200" height="200"/>
<rect x="80" y="80" style="fill:#ED1C24;" width="40" height="40"/>
<g>
	<rect x="40" y="40" style="fill:#FFFFFF;" width="40" height="40"/>
	<circle cx="60" cy="60" r="10"/>
</g>
<g>
	<rect x="80" y="40" style="fill:#FFFFFF;" width="40" height="40"/>
	<circle cx="100" cy="60" r="10"/>
</g>
<g>
	<rect x="120" y="40" style="fill:#FFFFFF;" width="40" height="40"/>
	<circle cx="140" cy="60" r="10"/>
</g>
<g>
	<rect x="40" y="120" style="fill:#FFFFFF;" width="40" height="40"/>
	<circle cx="60" cy="140" r="10"/>
</g>
<g>
	<rect x="80" y="120" style="fill:#FFFFFF;" width="40" height="40"/>
	<circle cx="100" cy="140" r="10"/>
</g>
<g>
	<rect x="120" y="120" style="fill:#FFFFFF;" width="40" height="40"/>
	<circle cx="140" cy="140" r="10"/>
</g>
<g>
	<rect x="120" y="80" style="fill:#FFFFFF;" width="40" height="40"/>
	<circle cx="140" cy="100" r="10"/>
</g>
<g>
	<rect x="40" y="80" style="fill:#FFFFFF;" width="40" height="40"/>
	<circle cx="60" cy="100" r="10"/>
</g>
</svg>
