<?xml version="1.0" encoding="utf-8"?>
<!-- Generator: Adobe Illustrator 17.0.0, SVG Export Plug-In . SVG Version: 6.00 Build 0)  -->
<!DOCTYPE svg PUBLIC "-//W3C//DTD SVG 1.1//EN" "http://www.w3.org/Graphics/SVG/1.1/DTD/svg11.dtd">
<svg version="1.1" id="Layer_1" xmlns="http://www.w3.org/2000/svg" xmlns:xlink="http://www.w3.org/1999/xlink" x="0px" y="0px"
	 width="200px" height="200px" viewBox="0 0 200 200" enable-background="new 0 0 200 200" xml:space="preserve">
<g id="g28" transform="translate(57.7581,74.3779)">
	<path id="path30" fill="#FFFFFF" stroke="#372E8A" stroke-width="5" stroke-miterlimit="10" d="M54.492-32.384
		c8.437,0,15.181,6.795,15.355,15.467c0.235,11.927,1.554,41.876,2.135,54.78l-34.984-0.127c0.583-12.853,1.903-42.752,2.138-54.653
		C39.311-25.589,46.055-32.384,54.492-32.384"/>
</g>
<g id="g32" transform="translate(30.7877,61.4266)">
	<path id="path34" fill="#FFFFFF" stroke="#372E8A" stroke-width="5" stroke-miterlimit="10" d="M20.102,7.01
		c0,0,69.527,45.373,107.964-3.252c22.817-28.865,36.358,26.014,36.358,26.014s-33.09-13.829-51.434,23.534
		c-10.939,23.171-59.807,13.227-73.901-1.775C25.974,37.576,20.102,7.01,20.102,7.01"/>
</g>
<g id="g36" transform="translate(30.7877,61.4266)">
	<path id="path38" fill="none" stroke="#372E8A" stroke-width="3.3766" stroke-miterlimit="10" d="M20.102,7.01
		c0,0,69.527,45.373,107.964-3.252c22.817-28.865,36.358,26.014,36.358,26.014s-33.09-13.829-51.434,23.534
		c-10.939,23.171-59.807,13.227-73.901-1.775C25.974,37.576,20.102,7.01,20.102,7.01z"/>
</g>
<g id="g40" transform="translate(78.0854,60.1035)">
	<path id="path42" fill="#372E8A" d="M89.046,11.585c0,2.286,1.853,4.139,4.139,4.139s4.139-1.853,4.139-4.139
		s-1.853-4.139-4.139-4.139C90.899,7.446,89.046,9.299,89.046,11.585"/>
</g>
<g id="g44" transform="translate(31.5972,60.4042)">
	<path id="path46" fill="#372E8A" d="M21.282,10.546c0,0-1.625-62.97-51.436-25.127C-16.372-15.171,3.25-16.651,21.282,10.546"/>
</g>
<g id="g48" transform="translate(10.488,59.7905)">
	<path id="path50" fill="#372E8A" d="M-9.488,12.667c13.559-12.998,28.17-33.852,54.96-1.443
		C45.472,11.225,27.055,3.557-9.488,12.667"/>
</g>
<g id="g52" transform="translate(15.5495,50.0226)">
	<path id="path54" fill="#372E8A" d="M-2.11,46.441C2.864,31.879-1.162,14,40.226,19.476C40.226,19.476,16.013,28.105-2.11,46.441"
		/>
</g>
<g id="g56" transform="translate(48.6168,37.8249)">
	<path id="path58" fill="#FFFFFF" stroke="#372E8A" stroke-width="5" stroke-linecap="round" stroke-miterlimit="10" d="
		M46.091,88.616l-35.474,39.841"/>
</g>
<g id="g60" transform="translate(61.3444,37.4632)">
	<path id="path62" fill="#FFFFFF" stroke="#372E8A" stroke-width="5" stroke-linecap="round" stroke-miterlimit="10" d="
		M64.643,89.868l20.156,36.882"/>
</g>
<g id="g64" transform="translate(38.0322,31.4769)">
	<path id="path66" fill="#FFFFFF" stroke="#372E8A" stroke-width="5" stroke-linecap="round" stroke-miterlimit="10" d="
		M30.662,110.566l4.139,24.24"/>
</g>
<g id="g68" transform="translate(43.565,27.7482)">
	<path id="path70" fill="#FFFFFF" stroke="#372E8A" stroke-width="5" stroke-linecap="round" stroke-miterlimit="10" d="
		M38.726,123.459l-26.515,2.956"/>
</g>
<g id="g72" transform="translate(63.0504,29.1916)">
	<path id="path74" fill="#FFFFFF" stroke="#372E8A" stroke-width="5" stroke-linecap="round" stroke-miterlimit="10" d="
		M67.13,118.468l20.101,7.983"/>
</g>
<g id="g76" transform="translate(69.5455,32.1986)">
	<path id="path78" fill="#FFFFFF" stroke="#372E8A" stroke-width="5" stroke-linecap="round" stroke-miterlimit="10" d="
		M76.597,108.071l-13.006,22.762"/>
</g>
</svg>
