<?xml version="1.0" encoding="utf-8"?>
<!-- Generator: Adobe Illustrator 17.0.0, SVG Export Plug-In . SVG Version: 6.00 Build 0)  -->
<!DOCTYPE svg PUBLIC "-//W3C//DTD SVG 1.1//EN" "http://www.w3.org/Graphics/SVG/1.1/DTD/svg11.dtd">
<svg version="1.1" id="Layer_1" xmlns="http://www.w3.org/2000/svg" xmlns:xlink="http://www.w3.org/1999/xlink" x="0px" y="0px"
	 width="200px" height="200px" viewBox="0 0 200 200" enable-background="new 0 0 200 200" xml:space="preserve">
<g id="g14">
	<g id="g20" transform="translate(82.4014,30.4744)">
		<path id="path22" fill="none" stroke="#363088" stroke-width="5" stroke-linecap="round" stroke-miterlimit="10" d="
			M90.623,113.531c-1.945-2.143-5.26-2.301-7.404-0.356c-2.677,2.434-2.876,6.576-0.444,9.254c3.04,3.347,8.219,3.597,11.566,0.557
			c4.185-3.802,4.496-10.275,0.697-14.46c-4.753-5.231-12.844-5.619-18.075-0.868c-6.538,5.938-7.023,16.054-1.084,22.591
			c7.424,8.172,20.067,8.781,28.239,1.356c10.216-9.281,12.193-24.074,0.147-51.936"/>
	</g>
	<g id="g24" transform="translate(65.0666,66.4981)">
		<path id="path26" fill="none" stroke="#363088" stroke-width="5" stroke-linecap="round" stroke-miterlimit="10" d="M68.89-3.681
			c-0.773-3.062,1.084-6.171,4.147-6.944c3.827-0.964,7.713,1.354,8.677,5.184c1.208,4.785-1.692,9.642-6.478,10.848
			c-5.981,1.51-12.053-2.117-13.561-8.098c-1.886-7.475,2.646-15.064,10.122-16.95c9.347-2.358,18.832,3.309,21.19,12.652
			c2.358-9.344,11.843-15.01,21.188-12.652c7.475,1.886,12.008,9.475,10.122,16.95c-1.508,5.981-7.579,9.608-13.558,8.098
			c-4.784-1.206-7.685-6.062-6.48-10.848c0.966-3.83,4.853-6.148,8.679-5.184c3.062,0.773,4.918,3.881,4.147,6.944"/>
	</g>
	<g id="g28" transform="translate(75.7584,67.9659)">
		<path id="path30" fill="none" stroke="#363088" stroke-width="5" stroke-linecap="round" stroke-miterlimit="10" d="M82.295-8.457
			v26.293"/>
	</g>
	<g id="g32" transform="translate(60.056,23.6878)">
		<path id="path34" fill="none" stroke="#363088" stroke-width="5" stroke-linecap="round" stroke-miterlimit="10" d="
			M62.607,135.612l9.788,9.788"/>
	</g>
	<g id="g36" transform="translate(60.056,23.6878)">
		<path id="path38" fill="none" stroke="#363088" stroke-width="5" stroke-linecap="round" stroke-miterlimit="10" d="
			M62.607,135.612l-9.788,9.788"/>
	</g>
	<g id="g40" transform="translate(60.056,23.6878)">
		<path id="path42" fill="none" stroke="#363088" stroke-width="5" stroke-linecap="round" stroke-miterlimit="10" d="
			M62.607,135.612v10.079"/>
	</g>
	<g id="g44" transform="translate(49.365,23.6878)">
		<path id="path46" fill="none" stroke="#363088" stroke-width="5" stroke-linecap="round" stroke-miterlimit="10" d="
			M49.203,135.612l9.788,9.788"/>
	</g>
	<g id="g48" transform="translate(49.365,23.6878)">
		<path id="path50" fill="none" stroke="#363088" stroke-width="5" stroke-linecap="round" stroke-miterlimit="10" d="
			M49.203,135.612l-9.788,9.788"/>
	</g>
	<g id="g52" transform="translate(49.365,23.6878)">
		<path id="path54" fill="none" stroke="#363088" stroke-width="5" stroke-linecap="round" stroke-miterlimit="10" d="
			M49.203,135.612v10.079"/>
	</g>
	<g id="g56" transform="translate(88.4541,45.4981)">
		<path id="path58" fill="#FFFFFF" d="M98.212,64.648c0,0-17.207-11.075-35.641,20.957c-2.324,4.037-27.706,48.239-68.771,17.067
			C-26.82,87.018-27.327,57.649-26.029,42.423c3.518,4.794,32.778,45.652,62.497,25.612c9.916-6.685,15.093-28.776,32.127-27.608
			C85.225,41.569,94.734,55.738,98.212,64.648"/>
	</g>
	<g id="g60" transform="translate(88.4541,45.4981)">
		<path id="path62" fill="none" stroke="#363088" stroke-width="5" stroke-linecap="round" stroke-miterlimit="10" d="
			M98.212,64.648c0,0-17.207-11.075-35.641,20.957c-2.324,4.037-27.706,48.239-68.771,17.067
			C-26.82,87.018-27.327,57.649-26.029,42.423c3.518,4.794,32.778,45.652,62.497,25.612c9.916-6.685,15.093-28.776,32.127-27.608
			C85.225,41.569,94.734,55.738,98.212,64.648z"/>
	</g>
	<g id="g64" transform="translate(39.3422,41.6003)">
		<path id="path66" fill="none" stroke="#363088" stroke-width="5" stroke-linecap="round" stroke-miterlimit="10" d="M36.638,77.33
			c24.095,36.896,57.977,28.142,82.825-19.294"/>
	</g>
	<g id="g68" transform="translate(74.422,50.1614)">
		<path id="path70" fill="#363088" d="M80.619,49.474c0,2.08,1.686,3.764,3.764,3.764c2.08,0,3.766-1.684,3.766-3.764
			c0-2.08-1.686-3.764-3.766-3.764C82.305,45.71,80.619,47.394,80.619,49.474"/>
	</g>
	<g id="g72" transform="translate(74.422,50.1614)">
		<path id="path74" fill="none" stroke="#363088" stroke-width="5" stroke-linecap="round" stroke-miterlimit="10" d="
			M80.619,49.474c0,2.08,1.686,3.764,3.764,3.764c2.08,0,3.766-1.684,3.766-3.764c0-2.08-1.686-3.764-3.766-3.764
			C82.305,45.71,80.619,47.394,80.619,49.474z"/>
	</g>
	<g id="g76" transform="translate(7.8655,76.4066)">
		<path id="path78" fill="none" stroke="#363088" stroke-width="5" stroke-linecap="round" stroke-miterlimit="10" d="
			M-2.826-35.921c4.485-17.189,62.26-18.133,57.387,48.942"/>
	</g>
	<g id="g80" transform="translate(7.8655,70.162)">
		<path id="path82" fill="none" stroke="#363088" stroke-width="5" stroke-linecap="round" stroke-miterlimit="10" d="
			M-2.826-15.602C1.852-29.58,47.281-34.455,54.561,19.265"/>
	</g>
	<g id="g84" transform="translate(7.8655,63.9174)">
		<path id="path86" fill="none" stroke="#363088" stroke-width="5" stroke-linecap="round" stroke-miterlimit="10" d="M-2.826,4.716
			C6.21-8.739,40.504-14.657,54.561,25.511"/>
	</g>
	<g id="g88" transform="translate(7.8655,57.0047)">
		<path id="path90" fill="none" stroke="#363088" stroke-width="5" stroke-linecap="round" stroke-miterlimit="10" d="
			M-2.826,27.208c10.541-22.981,46.094-11.35,57.387,5.215"/>
	</g>
</g>
</svg>
