<?xml version="1.0" encoding="iso-8859-1"?>
<!-- Generator: Adobe Illustrator 17.0.0, SVG Export Plug-In . SVG Version: 6.00 Build 0)  -->
<!DOCTYPE svg PUBLIC "-//W3C//DTD SVG 1.1//EN" "http://www.w3.org/Graphics/SVG/1.1/DTD/svg11.dtd">
<svg version="1.1" id="Layer_1" xmlns="http://www.w3.org/2000/svg" xmlns:xlink="http://www.w3.org/1999/xlink" x="0px" y="0px"
	 width="200px" height="200px" viewBox="0 0 200 200" style="enable-background:new 0 0 200 200;" xml:space="preserve">
<g>
	<polygon style="fill:#FFFFFF;" points="157,81 119,81 119,43 81,43 81,81 43,81 43,119 81,119 81,157 119,157 119,119 157,119 	"/>
	<g>
		<rect x="2" y="80.4" style="fill:#D50000;stroke:#D50000;stroke-width:4;stroke-miterlimit:10;" width="39.2" height="39.2"/>
		<rect x="41.2" y="41.2" style="fill:#D50000;stroke:#D50000;stroke-width:4;stroke-miterlimit:10;" width="39.2" height="39.2"/>
		<rect x="80.4" y="2" style="fill:#D50000;stroke:#D50000;stroke-width:4;stroke-miterlimit:10;" width="39.2" height="39.2"/>
		<rect x="119.6" y="41.2" style="fill:#D50000;stroke:#D50000;stroke-width:4;stroke-miterlimit:10;" width="39.2" height="39.2"/>
		<rect x="158.8" y="80.4" style="fill:#D50000;stroke:#D50000;stroke-width:4;stroke-miterlimit:10;" width="39.2" height="39.2"/>
		
			<rect x="119.6" y="119.6" style="fill:#D50000;stroke:#D50000;stroke-width:4;stroke-miterlimit:10;" width="39.2" height="39.2"/>
		<rect x="80.4" y="158.8" style="fill:#D50000;stroke:#D50000;stroke-width:4;stroke-miterlimit:10;" width="39.2" height="39.2"/>
		<rect x="41.2" y="119.6" style="fill:#D50000;stroke:#D50000;stroke-width:4;stroke-miterlimit:10;" width="39.2" height="39.2"/>
	</g>
</g>
</svg>
