<?xml version="1.0" encoding="utf-8"?>
<!-- Generator: Adobe Illustrator 17.0.0, SVG Export Plug-In . SVG Version: 6.00 Build 0)  -->
<!DOCTYPE svg PUBLIC "-//W3C//DTD SVG 1.1//EN" "http://www.w3.org/Graphics/SVG/1.1/DTD/svg11.dtd">
<svg version="1.1" id="Layer_1" xmlns="http://www.w3.org/2000/svg" xmlns:xlink="http://www.w3.org/1999/xlink" x="0px" y="0px"
	 width="200px" height="200px" viewBox="0 0 200 200" enable-background="new 0 0 200 200" xml:space="preserve">
<g>
	<g id="g20" transform="translate(65.4141,50.2144)">
		<path id="path22" fill="#FFFFFF" stroke="#372E8A" stroke-width="5" stroke-linecap="round" stroke-miterlimit="10" d="
			M78.82,49.17c0,0-14.825,0.404-25.446,12.081C42.757,72.929,43.76,87.727,43.76,87.727s14.825-0.404,25.443-12.081
			C79.821,63.966,78.82,49.17,78.82,49.17"/>
	</g>
	<g id="g24" transform="translate(66.058,71.0247)">
		<path id="path26" fill="#FFFFFF" stroke="#372E8A" stroke-width="5" stroke-linecap="round" stroke-miterlimit="10" d="
			M80.023-31.359c0,0-14.825,0.404-25.446,12.081C43.96-7.6,44.965,7.198,44.965,7.198S59.79,6.794,70.407-4.883
			C81.025-16.562,80.023-31.359,80.023-31.359"/>
	</g>
	<g id="g28" transform="translate(33.942,62.5773)">
		<path id="path30" fill="#FFFFFF" stroke="#372E8A" stroke-width="5" stroke-linecap="round" stroke-miterlimit="10" d="
			M19.977,1.33c0,0,14.825,0.404,25.446,12.081c10.618,11.677,9.614,26.476,9.614,26.476s-14.825-0.404-25.443-12.081
			C18.975,16.126,19.977,1.33,19.977,1.33"/>
	</g>
	<g id="g32" transform="translate(35.5807,43.4966)">
		<path id="path34" fill="#FFFFFF" stroke="#372E8A" stroke-width="5" stroke-linecap="round" stroke-miterlimit="10" d="
			M23.04,75.166c0,0,14.825,0.404,25.446,12.081c10.618,11.677,9.614,26.476,9.614,26.476s-14.825-0.404-25.443-12.081
			C22.039,89.962,23.04,75.166,23.04,75.166"/>
	</g>
	<g id="g36" transform="translate(50.3536,75.3617)">
		<path id="path38" fill="#FFFFFF" stroke="#372E8A" stroke-width="5" stroke-linecap="round" stroke-miterlimit="10" d="
			M50.661-48.142v164.906"/>
	</g>
	<g id="g40" transform="translate(40.9052,74.9293)">
		<path id="path42" fill="#FFFFFF" stroke="#372E8A" stroke-width="5" stroke-miterlimit="10" d="M32.996-46.468
			c0,11.37,9.217,20.587,20.587,20.587s20.584-9.217,20.584-20.587s-9.214-20.587-20.584-20.587S32.996-57.838,32.996-46.468"/>
	</g>
	<g id="g44" transform="translate(42.6465,76.6248)">
		<path id="path46" fill="#372E8A" d="M37.207-52.074c0,6.276,5.088,11.364,11.364,11.364c6.279,0,11.367-5.088,11.367-11.364
			S54.85-63.438,48.571-63.438C42.295-63.438,37.207-58.35,37.207-52.074"/>
	</g>
</g>
</svg>
