<?xml version="1.0" encoding="utf-8"?>
<!-- Generator: Adobe Illustrator 17.0.0, SVG Export Plug-In . SVG Version: 6.00 Build 0)  -->
<!DOCTYPE svg PUBLIC "-//W3C//DTD SVG 1.1//EN" "http://www.w3.org/Graphics/SVG/1.1/DTD/svg11.dtd">
<svg version="1.1" id="Layer_1" xmlns="http://www.w3.org/2000/svg" xmlns:xlink="http://www.w3.org/1999/xlink" x="0px" y="0px"
	 width="200px" height="200px" viewBox="0 0 200 200" enable-background="new 0 0 200 200" xml:space="preserve">
<g>
	<path id="path26_1_" fill="none" stroke="#372E8A" stroke-width="5" stroke-linecap="round" stroke-miterlimit="10" d="
		M170.478,90.511c2.258-8.957-3.171-18.048-12.125-20.306c-11.196-2.826-22.561,3.963-25.387,15.156
		c-3.529,13.995,4.955,28.202,18.95,31.731c17.491,4.411,35.25-6.192,39.661-23.686c5.516-21.865-7.737-44.062-29.605-49.577
		c-27.33-6.894-55.079,9.674-61.97,37.008c-6.895-27.334-34.644-43.903-61.974-37.008C16.16,49.344,2.908,71.541,8.423,93.406
		c4.411,17.494,22.17,28.097,39.661,23.686c13.995-3.528,22.479-17.736,18.95-31.731c-2.826-11.193-14.191-17.982-25.387-15.156
		c-8.955,2.258-14.383,11.348-12.125,20.306"/>
	<path id="path26" fill="none" stroke="#372E8A" stroke-width="5" stroke-linecap="round" stroke-miterlimit="10" d="M100,157.733
		V80.836"/>
</g>
</svg>
