<?xml version="1.0" encoding="utf-8"?>
<!-- Generator: Adobe Illustrator 17.0.0, SVG Export Plug-In . SVG Version: 6.00 Build 0)  -->
<!DOCTYPE svg PUBLIC "-//W3C//DTD SVG 1.1//EN" "http://www.w3.org/Graphics/SVG/1.1/DTD/svg11.dtd">
<svg version="1.1" id="Layer_1" xmlns="http://www.w3.org/2000/svg" xmlns:xlink="http://www.w3.org/1999/xlink" x="0px" y="0px"
	 width="200px" height="200px" viewBox="0 0 200 200" enable-background="new 0 0 200 200" xml:space="preserve">
<g id="g20" transform="translate(29.9634,41.9813)">
	<path id="path22" fill="none" stroke="#372E8A" stroke-width="5" stroke-linecap="round" stroke-miterlimit="10" d="M-0.442,86.121
		c-2.258-8.958,3.17-18.048,12.125-20.306c11.196-2.826,22.561,3.963,25.387,15.156c3.529,13.995-4.955,28.203-18.95,31.731
		c-17.491,4.411-35.25-6.192-39.661-23.686c-5.515-21.865,7.737-44.062,29.605-49.577c27.33-6.895,55.079,9.674,61.974,37.008
		c6.891-27.334,34.64-43.902,61.97-37.008c21.868,5.515,35.121,27.712,29.605,49.577c-4.411,17.494-22.17,28.097-39.661,23.686
		c-13.995-3.529-22.479-17.736-18.95-31.731c2.826-11.193,14.191-17.982,25.387-15.156c8.954,2.258,14.383,11.349,12.125,20.306"/>
</g>
<g id="g24" transform="translate(51.215,44.8987)">
	<path id="path26" fill="none" stroke="#372E8A" stroke-width="5" stroke-linecap="round" stroke-miterlimit="10" d="M48.785,73.529
		v76.897"/>
</g>
<g id="g28" transform="translate(50.5508,71.1335)">
	
		<path id="path30" fill="#FFFFFF" stroke="#372E8A" stroke-width="5" stroke-linecap="round" stroke-linejoin="round" stroke-miterlimit="10" d="
		M49.449-41.913l0,65.029c40.493-43.306,0.123-89.574,0.123-89.574h-0.245c0,0-40.368,46.268,0.122,89.574L49.449-41.913z"/>
</g>
</svg>
