<?xml version="1.0" encoding="utf-8"?>
<!-- Generator: Adobe Illustrator 17.0.0, SVG Export Plug-In . SVG Version: 6.00 Build 0)  -->
<!DOCTYPE svg PUBLIC "-//W3C//DTD SVG 1.1//EN" "http://www.w3.org/Graphics/SVG/1.1/DTD/svg11.dtd">
<svg version="1.1" id="Layer_1" xmlns="http://www.w3.org/2000/svg" xmlns:xlink="http://www.w3.org/1999/xlink" x="0px" y="0px"
	 width="200px" height="200px" viewBox="0 0 200 200" enable-background="new 0 0 200 200" xml:space="preserve">
<g id="g20" transform="translate(56.9732,69.7368)">
	<path id="path22" fill="#363088" d="M62.698-25.414c0,7.151,5.797,12.948,12.948,12.948s12.951-5.797,12.951-12.948
		s-5.8-12.948-12.951-12.948C68.495-38.362,62.698-32.565,62.698-25.414"/>
</g>
<g id="g24" transform="translate(64.1695,65.2665)">
	<path id="path26" fill="#363088" d="M75.802-8.333c0,7.151,5.797,12.948,12.948,12.948s12.951-5.797,12.951-12.948
		s-5.8-12.948-12.951-12.948S75.802-15.484,75.802-8.333"/>
</g>
<g id="g28" transform="translate(64.9823,56.2988)">
	<path id="path30" fill="#363088" d="M77.282,25.932c0,7.151,5.797,12.948,12.948,12.948s12.951-5.797,12.951-12.948
		s-5.8-12.948-12.951-12.948S77.282,18.781,77.282,25.932"/>
</g>
<g id="g32" transform="translate(58.7185,65.3729)">
	<path id="path34" fill="#363088" d="M65.876-8.739c0,7.151-5.797,12.948-12.948,12.948S39.976-1.588,39.976-8.739
		s5.8-12.948,12.951-12.948S65.876-15.891,65.876-8.739"/>
</g>
<g id="g36" transform="translate(57.9056,56.4052)">
	<path id="path38" fill="#363088" d="M64.395,25.526c0,7.151-5.797,12.948-12.948,12.948s-12.951-5.797-12.951-12.948
		s5.8-12.948,12.951-12.948S64.395,18.375,64.395,25.526"/>
</g>
<g id="g40" transform="translate(69.0227,37.9377)">
	<path id="path42" fill="#363088" stroke="#363088" stroke-width="5" stroke-miterlimit="10" d="M84.639,96.089V28.646
		c0-11.62-9.422-21.042-21.042-21.042c-11.622,0-21.042,9.422-21.042,21.042V96.09L84.639,96.089L84.639,96.089z"/>
</g>
<g id="g44" transform="translate(61.5635,69.3046)">
	<path id="path46" fill="#FFFFFF" stroke="#363088" stroke-width="5" stroke-miterlimit="10" d="M71.056-23.762
		c-11.622,0-21.042,9.422-21.042,21.042v67.444l21.042-1.052"/>
</g>
<g id="g48" transform="translate(27.3722,31.6325)">
	<path id="path50" fill="none" stroke="#363088" stroke-width="5" stroke-linecap="round" stroke-miterlimit="10" d="M8.795,120.181
		c2.79-3.069,7.538-3.298,10.61-0.511c3.837,3.487,4.121,9.425,0.638,13.261c-4.358,4.798-11.78,5.154-16.579,0.798
		c-5.995-5.447-6.44-14.725-0.993-20.723c6.807-7.495,18.404-8.051,25.899-1.244c9.371,8.514,10.065,23.008,1.554,32.376
		c-10.638,11.713-28.757,12.584-40.47,1.944c-14.641-13.298-17.473-34.5-0.209-74.428"/>
</g>
<g id="g52" transform="translate(47.2198,72.8782)">
	<path id="path54" fill="none" stroke="#363088" stroke-width="5" stroke-linecap="round" stroke-miterlimit="10" d="M44.937-37.417
		c1.106-4.389-1.554-8.844-5.941-9.95c-5.487-1.385-11.055,1.941-12.438,7.428c-1.729,6.855,2.426,13.817,9.284,15.546
		c8.57,2.161,17.27-3.033,19.434-11.605c2.702-10.714-3.791-21.589-14.505-24.291c-13.394-3.38-26.988,4.739-30.368,18.13
		C7.026-55.55-6.571-63.669-19.962-60.289c-10.714,2.702-17.208,13.577-14.505,24.291c2.161,8.573,10.864,13.766,19.434,11.605
		c6.858-1.729,11.013-8.691,9.284-15.546c-1.385-5.487-6.954-8.813-12.438-7.428c-4.389,1.106-7.05,5.56-5.941,9.95"/>
</g>
<g id="g56" transform="translate(34.9781,74.5587)">
	<path id="path58" fill="none" stroke="#363088" stroke-width="5" stroke-linecap="round" stroke-miterlimit="10" d="M22.645-43.838
		v37.68"/>
</g>
<g id="g60" transform="translate(52.9567,23.8621)">
	<path id="path62" fill="none" stroke="#363088" stroke-width="5" stroke-linecap="round" stroke-miterlimit="10" d="
		M55.384,149.872L41.355,163.9"/>
</g>
<g id="g64" transform="translate(52.9567,23.8621)">
	<path id="path66" fill="none" stroke="#363088" stroke-width="5" stroke-linecap="round" stroke-miterlimit="10" d="
		M55.384,149.872L69.412,163.9"/>
</g>
<g id="g68" transform="translate(52.9567,23.8621)">
	<path id="path70" fill="none" stroke="#363088" stroke-width="5" stroke-linecap="round" stroke-miterlimit="10" d="
		M55.384,149.872v14.443"/>
</g>
<g id="g72" transform="translate(65.1975,23.8621)">
	<path id="path74" fill="none" stroke="#363088" stroke-width="5" stroke-linecap="round" stroke-miterlimit="10" d="
		M77.674,149.872L63.645,163.9"/>
</g>
<g id="g76" transform="translate(65.1975,23.8621)">
	<path id="path78" fill="none" stroke="#363088" stroke-width="5" stroke-linecap="round" stroke-miterlimit="10" d="
		M77.674,149.872L91.702,163.9"/>
</g>
<g id="g80" transform="translate(65.1975,23.8621)">
	<path id="path82" fill="none" stroke="#363088" stroke-width="5" stroke-linecap="round" stroke-miterlimit="10" d="
		M77.674,149.872v14.443"/>
</g>
<g id="g84" transform="translate(20.4421,48.8341)">
	<path id="path86" fill="#FFFFFF" d="M-3.824,54.455c0,0,24.661-15.871,51.076,30.035c3.329,5.786,39.708,69.133,98.556,24.458
		c29.552-22.432,30.277-64.524,28.418-86.341c-5.041,6.869-46.975,65.424-89.566,36.704C70.452,49.73,63.033,18.07,38.62,19.743
		C14.786,21.379,1.161,41.687-3.824,54.455"/>
</g>
<g id="g88" transform="translate(20.4421,48.8341)">
	<path id="path90" fill="none" stroke="#363088" stroke-width="5" stroke-miterlimit="10" d="M-3.824,54.455
		c0,0,24.661-15.871,51.076,30.035c3.329,5.786,39.708,69.133,98.556,24.458c29.552-22.432,30.277-64.524,28.418-86.341
		c-5.041,6.869-46.975,65.424-89.566,36.704C70.452,49.73,63.033,18.07,38.62,19.743C14.786,21.379,1.161,41.687-3.824,54.455z"/>
</g>
<g id="g92" transform="translate(76.6732,44.3712)">
	<path id="path94" fill="none" stroke="#363088" stroke-width="5" stroke-linecap="round" stroke-miterlimit="10" d="M98.571,71.507
		c-34.531,52.876-80.525,45.08-116.136-22.902"/>
</g>
<g id="g96" transform="translate(36.5082,54.1733)">
	<path id="path98" fill="none" stroke="#363088" stroke-width="5" stroke-linecap="round" stroke-miterlimit="10" d="M25.432,34.054
		c0,2.979-2.415,5.396-5.396,5.396c-2.979,0-5.394-2.418-5.394-5.396s2.415-5.396,5.394-5.396
		C23.017,28.657,25.432,31.075,25.432,34.054z"/>
</g>
</svg>
