<?xml version="1.0" encoding="iso-8859-1"?>
<!-- Generator: Adobe Illustrator 17.0.0, SVG Export Plug-In . SVG Version: 6.00 Build 0)  -->
<!DOCTYPE svg PUBLIC "-//W3C//DTD SVG 1.1//EN" "http://www.w3.org/Graphics/SVG/1.1/DTD/svg11.dtd">
<svg version="1.1" id="Layer_1" xmlns="http://www.w3.org/2000/svg" xmlns:xlink="http://www.w3.org/1999/xlink" x="0px" y="0px"
	 width="200px" height="200px" viewBox="0 0 200 200" style="enable-background:new 0 0 200 200;" xml:space="preserve">
<g>
	<polygon points="154.833,100 154.833,84.333 139.167,84.333 139.167,68.667 123.5,68.667 123.5,53 107.833,53 107.833,37.333 
		92.167,37.333 92.167,53 76.5,53 76.5,68.667 60.833,68.667 60.833,84.333 45.167,84.333 45.167,100 29.5,100 29.5,115.667 
		45.167,115.667 60.833,115.667 60.833,100 76.5,100 76.5,84.333 92.167,84.333 92.167,100 76.5,100 76.5,115.667 60.833,115.667 
		60.833,131.333 45.167,131.333 45.167,147 60.833,147 76.5,147 76.5,162.667 76.5,178.333 60.833,178.333 60.833,194 76.5,194 
		92.167,194 92.167,178.333 92.167,162.667 92.167,147 107.833,147 107.833,162.667 107.833,178.333 107.833,194 123.5,194 
		139.167,194 139.167,178.333 123.5,178.333 123.5,162.667 123.5,147 139.167,147 154.833,147 154.833,131.333 139.167,131.333 
		139.167,115.667 123.5,115.667 123.5,100 107.833,100 107.833,84.333 123.5,84.333 123.5,100 139.167,100 139.167,115.667 
		154.833,115.667 170.5,115.667 170.5,100 	"/>
	<polygon points="107.833,21.667 107.833,37.333 123.5,37.333 123.5,21.667 123.5,6 107.833,6 92.167,6 76.5,6 76.5,21.667 
		76.5,37.333 92.167,37.333 92.167,21.667 	"/>
</g>
</svg>
