<?xml version="1.0" encoding="iso-8859-1"?>
<!-- Generator: Adobe Illustrator 17.0.0, SVG Export Plug-In . SVG Version: 6.00 Build 0)  -->
<!DOCTYPE svg PUBLIC "-//W3C//DTD SVG 1.1//EN" "http://www.w3.org/Graphics/SVG/1.1/DTD/svg11.dtd">
<svg version="1.1" id="Layer_1" xmlns="http://www.w3.org/2000/svg" xmlns:xlink="http://www.w3.org/1999/xlink" x="0px" y="0px"
	 width="200px" height="200px" viewBox="0 0 200 200" style="enable-background:new 0 0 200 200;" xml:space="preserve">
<g>
	<g>
		<polygon style="fill:#D50000;" points="77,195 77,159 41,159 41,123 5,123 5,77 41,77 41,41 77,41 77,5 123,5 123,41 159,41 
			159,77 195,77 195,123 159,123 159,159 123,159 123,195 		"/>
		<path style="fill:#B71C1C;" d="M118,10v36h36v36h36v36h-36v36h-36v36H82v-36H46v-36H10V82h36V46h36V10H118 M128,0h-10H82H72v10v26
			H46H36v10v26H10H0v10v36v10h10h26v26v10h10h26v26v10h10h36h10v-10v-26h26h10v-10v-26h26h10v-10V82V72h-10h-26V46V36h-10h-26V10V0
			L128,0z"/>
	</g>
	<rect x="80" y="80" width="40" height="40"/>
</g>
</svg>
