<?xml version="1.0" encoding="utf-8"?>
<!-- Generator: Adobe Illustrator 17.0.0, SVG Export Plug-In . SVG Version: 6.00 Build 0)  -->
<!DOCTYPE svg PUBLIC "-//W3C//DTD SVG 1.1//EN" "http://www.w3.org/Graphics/SVG/1.1/DTD/svg11.dtd">
<svg version="1.1" id="Layer_1" xmlns="http://www.w3.org/2000/svg" xmlns:xlink="http://www.w3.org/1999/xlink" x="0px" y="0px"
	 width="200px" height="200px" viewBox="0 0 200 200" enable-background="new 0 0 200 200" xml:space="preserve">
<g id="g20" transform="translate(37.9466,73.6052)">
	<path id="path22" fill="#372E8A" stroke="#372E8A" stroke-width="5" stroke-miterlimit="10" d="M88.17-26.695
		c0-28.139,20.323-38.583,20.323-38.583s-36.725-2.553-36.725,38.583v88.179H88.17V-26.695z"/>
</g>
<g id="g24" transform="translate(59.8449,73.6052)">
	<path id="path26" fill="#372E8A" stroke="#372E8A" stroke-width="5" stroke-miterlimit="10" d="M14.002-26.695
		c0-28.139-20.323-38.583-20.323-38.583s36.724-2.553,36.724,38.583v88.179H14.002V-26.695z"/>
</g>
<g id="g28" transform="translate(66.5188,71.9207)">
	<path id="path30" fill="#FFFFFF" stroke="#372E8A" stroke-width="5" stroke-miterlimit="10" d="M-10.561-21.296
		c0-20.424-17.673-29.395-17.673-29.395s36.85-3.792,36.85,29.395V63.17h-19.178V-21.296z"/>
</g>
<g id="g32" transform="translate(31.2564,71.9207)">
	<path id="path34" fill="#FFFFFF" stroke="#372E8A" stroke-width="5" stroke-miterlimit="10" d="M112.786-21.296
		c0-20.424,17.673-29.395,17.673-29.395s-36.85-3.792-36.85,29.395V63.17h19.178L112.786-21.296L112.786-21.296z"/>
</g>
<g id="g36" transform="translate(48.8958,85.3156)">
	<path id="path38" fill="#FFFFFF" stroke="#372E8A" stroke-width="5" stroke-linecap="round" stroke-miterlimit="10" d="
		M51.085-64.219c0,0,9.733,8.659,9.733,17.479v96.516h-9.733h-9.733V-46.74C41.354-55.56,51.085-64.219,51.085-64.219"/>
</g>
<path id="path40" fill="#372E8A" stroke="#372E8A" stroke-width="5" stroke-linecap="round" stroke-miterlimit="10" d="M100,191.704
	l-0.019-56.613"/>
</svg>
