<?xml version="1.0" encoding="utf-8"?>
<!-- Generator: Adobe Illustrator 17.0.0, SVG Export Plug-In . SVG Version: 6.00 Build 0)  -->
<!DOCTYPE svg PUBLIC "-//W3C//DTD SVG 1.1//EN" "http://www.w3.org/Graphics/SVG/1.1/DTD/svg11.dtd">
<svg version="1.1" id="Layer_1" xmlns="http://www.w3.org/2000/svg" xmlns:xlink="http://www.w3.org/1999/xlink" x="0px" y="0px"
	 width="200px" height="200px" viewBox="0 0 200 200" enable-background="new 0 0 200 200" xml:space="preserve">
<g id="g20" transform="translate(74.8894,38.896)">
	<path id="path22" fill="#FFFFFF" stroke="#372E8A" stroke-width="5" stroke-linecap="round" stroke-miterlimit="10" d="
		M83.24,89.444c0,0,0.418,20.713-15.173,36.304s-36.304,15.173-36.304,15.173s-0.418-20.713,15.173-36.304
		S83.24,89.444,83.24,89.444"/>
</g>
<g id="g24" transform="translate(43.1881,27.6134)">
	<path id="path26" fill="#FFFFFF" stroke="#372E8A" stroke-width="5" stroke-linecap="round" stroke-miterlimit="10" d="
		M41.274,129.521c0,0,6.263-12.901,0.978-27.216c-5.286-14.318-18.429-20.053-18.429-20.053s-6.263,12.899-0.978,27.216
		C28.13,123.784,41.274,129.521,41.274,129.521"/>
</g>
<g id="g28" transform="translate(49.3336,61.8739)">
	
		<path id="path30" fill="none" stroke="#372E8A" stroke-width="5" stroke-linecap="round" stroke-linejoin="round" stroke-miterlimit="10" d="
		M48.894,7.822l0,122.43"/>
</g>
<g id="g32" transform="translate(58.7287,76.7022)">
	<path id="path34" fill="#FFFFFF" d="M63.476-44.851c0,13.244-23.978,37.843-23.978,37.843s-23.977-24.6-23.977-37.843
		s10.735-23.977,23.978-23.977S63.476-58.094,63.476-44.851"/>
</g>
<g id="g36" transform="translate(58.7287,76.7022)">
	<path id="path38" fill="none" stroke="#372E8A" stroke-width="5" stroke-miterlimit="10" d="M63.476-44.851
		c0,13.244-23.978,37.843-23.978,37.843s-23.977-24.6-23.977-37.843s10.735-23.977,23.978-23.977S63.476-58.094,63.476-44.851z"/>
</g>
<g id="g40" transform="translate(34.5053,71.2689)">
	<path id="path42" fill="#FFFFFF" d="M25.878-25.551c13.244,0,37.843,23.978,37.843,23.978S39.12,22.405,25.878,22.405
		S1.9,11.67,1.9-1.573S12.634-25.551,25.878-25.551"/>
</g>
<g id="g44" transform="translate(34.5053,71.2689)">
	<path id="path46" fill="none" stroke="#372E8A" stroke-width="5" stroke-miterlimit="10" d="M25.878-25.551
		c13.244,0,37.843,23.978,37.843,23.978S39.12,22.405,25.878,22.405S1.9,11.67,1.9-1.573S12.634-25.551,25.878-25.551z"/>
</g>
<g id="g48" transform="translate(64.1619,71.2689)">
	<path id="path50" fill="#FFFFFF" d="M71.909-25.551c-13.244,0-37.843,23.978-37.843,23.978s24.601,23.978,37.843,23.978
		S95.887,11.67,95.887-1.573S85.153-25.551,71.909-25.551"/>
</g>
<g id="g52" transform="translate(64.1619,71.2689)">
	<path id="path54" fill="none" stroke="#372E8A" stroke-width="5" stroke-miterlimit="10" d="M71.909-25.551
		c-13.244,0-37.843,23.978-37.843,23.978s24.601,23.978,37.843,23.978S95.887,11.67,95.887-1.573S85.153-25.551,71.909-25.551z"/>
</g>
</svg>
