<?xml version="1.0" encoding="iso-8859-1"?>
<!-- Generator: Adobe Illustrator 17.0.0, SVG Export Plug-In . SVG Version: 6.00 Build 0)  -->
<!DOCTYPE svg PUBLIC "-//W3C//DTD SVG 1.1//EN" "http://www.w3.org/Graphics/SVG/1.1/DTD/svg11.dtd">
<svg version="1.1" id="Layer_1" xmlns="http://www.w3.org/2000/svg" xmlns:xlink="http://www.w3.org/1999/xlink" x="0px" y="0px"
	 width="200px" height="200px" viewBox="0 0 200 200" style="enable-background:new 0 0 200 200;" xml:space="preserve">
<g>
	<rect x="57.143" y="171.429" width="28.571" height="28.571"/>
	<rect x="114.286" y="171.429" width="28.571" height="28.571"/>
	<rect y="114.286" width="28.571" height="28.571"/>
	<rect y="57.143" width="28.571" height="28.571"/>
	<polygon points="142.857,85.714 142.857,57.143 114.286,57.143 114.286,28.571 85.714,28.571 85.714,57.143 57.143,57.143 
		57.143,85.714 28.571,85.714 28.571,114.286 57.143,114.286 57.143,142.857 85.714,142.857 85.714,171.429 114.286,171.429 
		114.286,142.857 142.857,142.857 142.857,114.286 171.429,114.286 171.429,85.714 	"/>
	<rect x="57.143" width="28.571" height="28.571"/>
	<rect x="114.286" width="28.571" height="28.571"/>
	<rect x="171.429" y="57.143" width="28.571" height="28.571"/>
	<rect x="171.429" y="114.286" width="28.571" height="28.571"/>
</g>
</svg>
