<?xml version="1.0" encoding="iso-8859-1"?>
<!-- Generator: Adobe Illustrator 17.0.0, SVG Export Plug-In . SVG Version: 6.00 Build 0)  -->
<!DOCTYPE svg PUBLIC "-//W3C//DTD SVG 1.1//EN" "http://www.w3.org/Graphics/SVG/1.1/DTD/svg11.dtd">
<svg version="1.1" id="Layer_1" xmlns="http://www.w3.org/2000/svg" xmlns:xlink="http://www.w3.org/1999/xlink" x="0px" y="0px"
	 width="200px" height="200px" viewBox="0 0 200 200" style="enable-background:new 0 0 200 200;" xml:space="preserve">
<polygon style="fill:#D50000;" points="85.714,114.286 0,114.286 0,142.857 28.571,142.857 28.571,171.429 57.143,171.429 
	57.143,200 85.714,200 "/>
<polygon style="fill:#D50000;" points="114.286,114.286 200,114.286 200,142.857 171.429,142.857 171.429,171.429 142.857,171.429 
	142.857,200 114.286,200 "/>
<polygon style="fill:#D50000;" points="85.714,85.714 0,85.714 0,57.143 28.571,57.143 28.571,28.571 57.143,28.571 57.143,0 
	85.714,0 "/>
<polygon style="fill:#D50000;" points="114.286,85.714 200,85.714 200,57.143 171.429,57.143 171.429,28.571 142.857,28.571 
	142.857,0 114.286,0 "/>
<rect x="85.714" y="85.714" width="28.571" height="28.571"/>
</svg>
