<?xml version="1.0" encoding="utf-8"?>
<!-- Generator: Adobe Illustrator 17.0.0, SVG Export Plug-In . SVG Version: 6.00 Build 0)  -->
<!DOCTYPE svg PUBLIC "-//W3C//DTD SVG 1.1//EN" "http://www.w3.org/Graphics/SVG/1.1/DTD/svg11.dtd">
<svg version="1.1" id="Layer_1" xmlns="http://www.w3.org/2000/svg" xmlns:xlink="http://www.w3.org/1999/xlink" x="0px" y="0px"
	 width="200px" height="200px" viewBox="0 0 200 200" enable-background="new 0 0 200 200" xml:space="preserve">
<g id="g36" transform="translate(60.3874,78.4599)">
	
		<path id="path38" fill="#FFFFFF" stroke="#372E8A" stroke-width="5" stroke-linecap="round" stroke-linejoin="round" stroke-miterlimit="10" d="
		M64.101-41.555c0-20.829,14.831-29.979,14.831-29.979S48.007-75.4,48.007-41.555V5.11h16.095L64.101-41.555L64.101-41.555z"/>
</g>
<g id="g40" transform="translate(39.5394,78.4599)">
	
		<path id="path42" fill="#FFFFFF" stroke="#372E8A" stroke-width="5" stroke-linecap="round" stroke-linejoin="round" stroke-miterlimit="10" d="
		M35.799-41.555c0-20.829-14.831-29.979-14.831-29.979S51.894-75.4,51.894-41.555V5.11H35.799V-41.555z"/>
</g>
<g id="g44" transform="translate(49.9634,91.2329)">
	
		<path id="path46" fill="#372E8A" stroke="#372E8A" stroke-width="5" stroke-linecap="round" stroke-linejoin="round" stroke-miterlimit="10" d="
		M49.95-84.442c0,0,8.481,8.832,8.481,17.825v58.953H49.95h-8.48v-58.953C41.471-75.61,49.95-84.442,49.95-84.442"/>
</g>
<g id="g48" transform="translate(59.3229,56.5977)">
	<path id="path50_2_" fill="none" stroke="#FFFFFF" stroke-width="5" stroke-linecap="round" stroke-miterlimit="10" d="
		M18.869,27.849"/>
	<path id="path50_1_" fill="none" stroke="#FFFFFF" stroke-width="5" stroke-linecap="round" stroke-miterlimit="10" d="
		M62.656,27.849"/>
</g>
<g id="g52" transform="translate(50.0366,13.0944)">
	<path id="path54" fill="none" stroke="#372E8A" stroke-width="5" stroke-miterlimit="10" d="M50.05,173.913V71.353"/>
</g>
<g id="g60" transform="translate(87.4725,41.2984)">
	<path id="path62" fill="#FFFFFF" d="M100.871,79.216c-6.394,6.394-29.846,6.695-29.846,6.695s0.301-23.452,6.695-29.846
		s16.757-6.394,23.151,0S107.265,72.823,100.871,79.216"/>
</g>
<g id="g64" transform="translate(87.4725,41.2984)">
	<path id="path66" fill="none" stroke="#372E8A" stroke-width="5" stroke-miterlimit="10" d="M100.871,79.216
		c-6.394,6.394-29.846,6.695-29.846,6.695s0.301-23.452,6.695-29.846s16.757-6.394,23.151,0S107.265,72.823,100.871,79.216z"/>
</g>
<g id="g68" transform="translate(71.9735,51.1184)">
	<path id="path70" fill="#FFFFFF" d="M79.83,46.245c6.394,6.394,6.695,29.846,6.695,29.846s-23.452-0.301-29.846-6.695
		s-6.394-16.757,0-23.151S73.436,39.851,79.83,46.245"/>
</g>
<g id="g72" transform="translate(71.9735,51.1184)">
	<path id="path74" fill="none" stroke="#372E8A" stroke-width="5" stroke-miterlimit="10" d="M79.83,46.245
		c6.394,6.394,6.695,29.846,6.695,29.846s-23.452-0.301-29.846-6.695s-6.394-16.757,0-23.151S73.436,39.851,79.83,46.245z"/>
</g>
<g id="g76" transform="translate(87.4725,35.6194)">
	<path id="path78" fill="#FFFFFF" d="M100.871,98.284c-6.394-6.394-29.846-6.695-29.846-6.695s0.301,23.452,6.695,29.846
		s16.757,6.394,23.151,0C107.265,115.042,107.265,104.677,100.871,98.284"/>
</g>
<g id="g80" transform="translate(87.4725,35.6194)">
	<path id="path82" fill="none" stroke="#372E8A" stroke-width="5" stroke-miterlimit="10" d="M100.871,98.284
		c-6.394-6.394-29.846-6.695-29.846-6.695s0.301,23.452,6.695,29.846s16.757,6.394,23.151,0
		C107.265,115.042,107.265,104.677,100.871,98.284z"/>
</g>
<g id="g84" transform="translate(25.187,38.4589)">
	<path id="path86" fill="none" stroke="#372E8A" stroke-width="5" stroke-linejoin="round" stroke-miterlimit="10" d="M16.315,88.75
		l58.411,59.797H74.9l58.411-59.797"/>
</g>
<g id="g88" transform="translate(12.5275,41.2984)">
	<path id="path90" fill="#FFFFFF" d="M-0.871,79.216c6.394,6.394,29.846,6.695,29.846,6.695s-0.301-23.452-6.695-29.846
		s-16.757-6.394-23.151,0S-7.265,72.823-0.871,79.216"/>
</g>
<g id="g92" transform="translate(12.5275,41.2984)">
	<path id="path94" fill="none" stroke="#372E8A" stroke-width="5" stroke-miterlimit="10" d="M-0.871,79.216
		c6.394,6.394,29.846,6.695,29.846,6.695s-0.301-23.452-6.695-29.846s-16.757-6.394-23.151,0S-7.265,72.823-0.871,79.216z"/>
</g>
<g id="g96" transform="translate(28.0265,51.1184)">
	<path id="path98" fill="#FFFFFF" d="M20.17,46.245c-6.394,6.394-6.695,29.846-6.695,29.846s23.452-0.301,29.846-6.695
		s6.394-16.757,0-23.151S26.564,39.851,20.17,46.245"/>
</g>
<g id="g100" transform="translate(28.0265,51.1184)">
	<path id="path102" fill="none" stroke="#372E8A" stroke-width="5" stroke-miterlimit="10" d="M20.17,46.245
		c-6.394,6.394-6.695,29.846-6.695,29.846s23.452-0.301,29.846-6.695s6.394-16.757,0-23.151S26.564,39.851,20.17,46.245z"/>
</g>
<g id="g104" transform="translate(12.5275,35.6194)">
	<path id="path106" fill="#FFFFFF" d="M-0.871,98.284c6.394-6.394,29.846-6.695,29.846-6.695s-0.301,23.452-6.695,29.846
		s-16.757,6.394-23.151,0C-7.265,115.042-7.265,104.677-0.871,98.284"/>
</g>
<g id="g108" transform="translate(12.5275,35.6194)">
	<path id="path110" fill="none" stroke="#372E8A" stroke-width="5" stroke-miterlimit="10" d="M-0.871,98.284
		c6.394-6.394,29.846-6.695,29.846-6.695s-0.301,23.452-6.695,29.846s-16.757,6.394-23.151,0
		C-7.265,115.042-7.265,104.677-0.871,98.284z"/>
</g>
</svg>
