<?xml version="1.0" encoding="utf-8"?>
<!-- Generator: Adobe Illustrator 17.0.0, SVG Export Plug-In . SVG Version: 6.00 Build 0)  -->
<!DOCTYPE svg PUBLIC "-//W3C//DTD SVG 1.1//EN" "http://www.w3.org/Graphics/SVG/1.1/DTD/svg11.dtd">
<svg version="1.1" id="Layer_1" xmlns="http://www.w3.org/2000/svg" xmlns:xlink="http://www.w3.org/1999/xlink" x="0px" y="0px"
	 width="200px" height="200px" viewBox="0 0 200 200" enable-background="new 0 0 200 200" xml:space="preserve">
<g>
	<g id="g30" transform="translate(74.2725,71.8516)">
		
			<path id="path32" fill="none" stroke="#363088" stroke-width="5" stroke-linecap="round" stroke-linejoin="round" stroke-miterlimit="10" d="
			M106.63-44.928c-12.357-12.357-32.388-12.357-44.742,0L25.725-8.771l-36.158-36.158c-12.354-12.357-32.385-12.357-44.742,0
			s-12.357,32.388,0,44.742c11.33,11.33,71.703,71.703,71.703,71.703l9.186,9.203l9.21-9.203c0,0,60.373-60.373,71.703-71.703
			C118.986-12.54,118.986-32.571,106.63-44.928z"/>
	</g>
	<g id="g34" transform="translate(53.3356,37.5355)">
		
			<path id="path36" fill="none" stroke="#363088" stroke-width="5" stroke-linecap="round" stroke-linejoin="round" stroke-miterlimit="10" d="
			M55.862,105.833c-12.498,12.498-7.944,23.565,1.687,33.196c7.706,7.706,20.199,7.706,27.905,0c6.163-6.163,6.163-16.159,0-22.323
			c-4.933-4.933-12.929-4.933-17.859,0c-3.946,3.943-3.946,10.34,0,14.287"/>
	</g>
	<g id="g38" transform="translate(46.8264,37.5355)">
		
			<path id="path40" fill="none" stroke="#363088" stroke-width="5" stroke-linecap="round" stroke-linejoin="round" stroke-miterlimit="10" d="
			M43.975,105.833c12.248,12.248,7.946,23.565-1.685,33.196c-7.706,7.706-20.199,7.706-27.905,0c-6.163-6.163-6.163-16.159,0-22.323
			c4.933-4.933,12.929-4.933,17.859,0c3.946,3.943,3.946,10.34,0,14.287"/>
	</g>
</g>
</svg>
