<?xml version="1.0" encoding="utf-8"?>
<!-- Generator: Adobe Illustrator 17.0.0, SVG Export Plug-In . SVG Version: 6.00 Build 0)  -->
<!DOCTYPE svg PUBLIC "-//W3C//DTD SVG 1.1//EN" "http://www.w3.org/Graphics/SVG/1.1/DTD/svg11.dtd">
<svg version="1.1" id="Layer_2" xmlns="http://www.w3.org/2000/svg" xmlns:xlink="http://www.w3.org/1999/xlink" x="0px" y="0px"
	 width="200px" height="200px" viewBox="0 0 200 200" enable-background="new 0 0 200 200" xml:space="preserve">
<path id="path26" fill="#FFFFFF" d="M100.272,162.609c-31.84,0-57.743-26.252-57.743-58.525c0-32.276,25.903-58.532,57.743-58.532
	c31.837,0,57.743,26.255,57.743,58.532C158.015,136.357,132.108,162.609,100.272,162.609"/>
<path id="path22" fill="#FFFFFF" stroke="#372E8A" stroke-width="6" stroke-linecap="round" stroke-linejoin="round" stroke-miterlimit="10" d="
	M70.86,133.4 M3.623,118.527c0,17.392,13.859,31.489,30.953,31.489c3.51,0,6.867-0.621,10.011-1.716
	c-2.947,4.821-4.679,10.493-4.679,16.589c0,17.39,13.859,31.489,30.953,31.489c13.468,0,24.892-8.765,29.149-20.98
	c4.257,12.215,15.682,20.98,29.149,20.98c17.094,0,30.953-14.098,30.953-31.489c0-6.073-1.721-11.725-4.648-16.537
	c3.128,1.083,6.471,1.699,9.961,1.699c17.094,0,30.953-14.098,30.953-31.489c0-16.114-11.905-29.381-27.256-31.244
	c8.597-5.595,14.309-15.368,14.309-26.518c0-17.39-13.859-31.489-30.953-31.489c-8.452,0-16.103,3.455-21.688,9.038
	c0.108-1.065,0.164-2.145,0.164-3.24c0-17.39-13.859-31.489-30.953-31.489S69.049,17.723,69.049,35.112
	c0,1.097,0.057,2.18,0.164,3.245c-5.584-5.578-13.233-9.031-21.68-9.031c-17.094,0-30.953,14.098-30.953,31.489
	c0,11.123,5.683,20.877,14.243,26.481C15.502,89.181,3.623,102.433,3.623,118.527"/>
<path id="path34" fill="#372E8A" d="M150.035,78.241c4.272,7.751,6.824,16.601,7.156,26.029
	c-11.976,19.233-33.111,32.017-57.207,32.017c-23.725,0-44.584-12.4-56.653-31.141c0.197-9.665,2.727-18.748,7.056-26.687
	c11.963,5.688,29.191,11.519,49.596,11.519C120.649,89.977,138.055,83.997,150.035,78.241"/>
<circle fill="none" stroke="#372E8A" stroke-width="6" stroke-miterlimit="10" cx="100.272" cy="104.083" r="56.117"/>
</svg>
