<?xml version="1.0" encoding="iso-8859-1"?>
<!-- Generator: Adobe Illustrator 17.0.0, SVG Export Plug-In . SVG Version: 6.00 Build 0)  -->
<!DOCTYPE svg PUBLIC "-//W3C//DTD SVG 1.1//EN" "http://www.w3.org/Graphics/SVG/1.1/DTD/svg11.dtd">
<svg version="1.1" id="Layer_1" xmlns="http://www.w3.org/2000/svg" xmlns:xlink="http://www.w3.org/1999/xlink" x="0px" y="0px"
	 width="200px" height="200px" viewBox="0 0 200 200" style="enable-background:new 0 0 200 200;" xml:space="preserve">
<rect width="28.571" height="28.571"/>
<rect x="57.143" width="28.571" height="28.571"/>
<rect x="114.286" width="28.571" height="28.571"/>
<rect x="171.429" width="28.571" height="28.571"/>
<rect x="171.429" y="57.143" width="28.571" height="28.571"/>
<rect x="171.429" y="114.286" width="28.571" height="28.571"/>
<rect x="171.429" y="171.429" width="28.571" height="28.571"/>
<rect x="114.286" y="171.429" width="28.571" height="28.571"/>
<rect x="57.143" y="171.429" width="28.571" height="28.571"/>
<rect x="0" y="171.429" width="28.571" height="28.571"/>
<rect x="0" y="114.286" width="28.571" height="28.571"/>
<rect x="0" y="57.143" width="28.571" height="28.571"/>
<path style="fill:#D50000;" d="M114.286,57.143H85.714h0H57.143v28.571v28.571v28.571h28.571h0h28.571h28.571v-28.571V85.714V57.143
	H114.286z M114.286,114.286H85.714V85.714h28.571V114.286z"/>
</svg>
