<?xml version="1.0" encoding="iso-8859-1"?>
<!-- Generator: Adobe Illustrator 17.0.0, SVG Export Plug-In . SVG Version: 6.00 Build 0)  -->
<!DOCTYPE svg PUBLIC "-//W3C//DTD SVG 1.1//EN" "http://www.w3.org/Graphics/SVG/1.1/DTD/svg11.dtd">
<svg version="1.1" id="Layer_1" xmlns="http://www.w3.org/2000/svg" xmlns:xlink="http://www.w3.org/1999/xlink" x="0px" y="0px"
	 width="162.28px" height="841.89px" viewBox="0 0 162.28 841.89" style="enable-background:new 0 0 162.28 841.89;"
	 xml:space="preserve">
<path d="M-402.792,20.482l4.393,6.553l4.393-6.553h9.937l-8.785,11.953h-11.089l-8.785-11.953H-402.792z"/>
<path d="M-377.592,20.482l4.393,6.553l4.393-6.553h9.937l-8.785,11.953h-11.089l-8.785-11.953H-377.592z"/>
<path d="M-342.528,21.995v53.429h-12.817V21.995H-342.528z"/>
<path d="M-294.359,36.468v38.956h-12.817v-6.336c-2.664,4.536-6.913,6.84-12.457,6.913c-8.425,0-13.897-5.833-13.897-14.905V36.468
	h12.817v20.954c0,4.392,2.448,7.057,6.265,7.057c4.536-0.072,7.272-3.672,7.272-8.785V36.468H-294.359z"/>
<path d="M-245.255,21.995v53.429h-12.817v-5.041c-2.664,3.601-6.625,5.544-11.521,5.544c-10.945,0-18.146-8.064-18.146-20.162
	c0-11.881,7.129-19.729,17.857-19.729c5.041,0,9.073,2.016,11.809,5.544V21.995H-245.255z M-258.073,56.125
	c0-5.833-3.384-9.721-8.353-9.721c-5.041,0-8.425,3.96-8.425,9.721c0,5.761,3.384,9.721,8.425,9.721
	C-261.457,65.847-258.073,61.886-258.073,56.125z"/>
<path d="M-195.72,55.91c0,12.025-8.497,19.946-21.313,19.946c-12.817,0-21.242-7.921-21.242-19.946
	c0-11.953,8.425-19.874,21.242-19.874C-204.217,36.036-195.72,43.957-195.72,55.91z M-225.386,56.054
	c0,5.833,3.384,9.721,8.353,9.721c5.04,0,8.425-3.888,8.425-9.721c0-5.761-3.385-9.649-8.425-9.649
	C-222.002,46.405-225.386,50.293-225.386,56.054z"/>
<path d="M-392.926,111.347v39.244h21.386v11.233h-34.563v-50.477H-392.926z M-371.541,111.347l-2.16,15.698h-7.705v-15.698H-371.541
	z"/>
<path d="M-342.958,151.167c5.833,0,9.865-3.96,9.865-10.513v-29.307h13.177v29.307c0,13.321-8.929,21.746-23.114,21.746
	c-14.257,0-23.402-8.425-23.402-21.746v-29.307h13.177v29.307C-353.255,147.134-348.935,151.167-342.958,151.167z"/>
<path d="M-262.389,136.549c0,15.049-11.017,25.274-27.362,25.274h-21.242v-50.477h21.746
	C-273.262,111.347-262.389,121.572-262.389,136.549z M-275.854,136.693c0-8.712-5.688-14.617-13.681-14.617h-8.281v29.091h8.929
	C-281.254,151.167-275.854,145.334-275.854,136.693z"/>
<path d="M-205.364,136.549c0,14.762-11.665,25.851-27.291,25.851c-15.625,0-27.29-11.089-27.29-25.851
	c0-14.689,11.665-25.562,27.29-25.562C-217.029,110.987-205.364,121.932-205.364,136.549z M-246.408,136.621
	c0,8.208,6.409,14.545,13.897,14.545c7.561,0,13.609-6.337,13.609-14.545c0-8.209-6.048-14.401-13.609-14.401
	C-240.072,122.22-246.408,128.412-246.408,136.621z"/>
<path d="M-367.22,197.747v10.873h-15.121v39.604h-13.177V208.62h-14.978v-10.873H-367.22z"/>
<path d="M-352.751,197.747l12.601,36.507l12.673-36.507h13.537l-19.729,50.477h-13.681l-19.586-50.477H-352.751z"/>
<path d="M-257.996,222.949c0,14.762-11.665,25.851-27.291,25.851c-15.625,0-27.29-11.089-27.29-25.851
	c0-14.689,11.665-25.562,27.29-25.562C-269.661,197.387-257.996,208.332-257.996,222.949z M-299.039,223.021
	c0,8.208,6.409,14.545,13.897,14.545c7.561,0,13.609-6.337,13.609-14.545c0-8.209-6.048-14.401-13.609-14.401
	C-292.703,208.62-299.039,214.813-299.039,223.021z"/>
<path d="M-221.134,248.224l-7.345-13.969h-0.288h-9.505v13.969h-13.177v-50.477h22.682c13.393,0,21.025,6.481,21.025,17.714
	c0,7.632-3.168,13.249-9.001,16.273l10.514,16.489H-221.134z M-238.271,223.742h9.577c5.329,0,8.425-2.736,8.425-7.849
	c0-4.969-3.096-7.633-8.425-7.633h-9.577V223.742z"/>
<path d="M-173.975,246.207c-2.808,1.656-6.696,2.593-10.513,2.593c-7.561,0.072-13.033-4.393-13.033-12.457v-16.706h-5.4v-8.497h5.4
	v-10.801h12.745v10.801h10.081v8.497h-10.081v14.689c0,2.88,1.297,4.176,3.528,4.104c1.296,0,2.952-0.504,4.824-1.296
	L-173.975,246.207z"/>
<path d="M-159.936,209.268l8.137,27.075l8.208-27.075h12.817l-14.617,38.956h-13.177l-14.546-38.956H-159.936z"/>
<path d="M-88.294,228.71c0,12.025-8.497,19.945-21.314,19.945c-12.816,0-21.241-7.92-21.241-19.945
	c0-11.953,8.425-19.874,21.241-19.874C-96.791,208.836-88.294,216.757-88.294,228.71z M-117.961,228.854
	c0,5.833,3.385,9.721,8.353,9.721c5.041,0,8.425-3.888,8.425-9.721c0-5.761-3.384-9.649-8.425-9.649
	C-114.576,219.205-117.961,223.093-117.961,228.854z"/>
<path d="M-56.401,208.764v11.737c-7.128-0.72-11.881,2.448-12.528,7.849v19.874h-12.817v-38.956h12.817v6.481
	C-66.266,211.285-61.873,208.764-56.401,208.764z"/>
<path d="M-402.936,265.059l4.537,6.697l4.537-6.697h7.344l-7.776,10.801h-8.209l-7.776-10.801H-402.936z"/>
<path d="M-377.736,265.059l4.537,6.697l4.537-6.697h7.344l-7.776,10.801h-8.209l-7.776-10.801H-377.736z"/>
<path d="M-345.84,265.995v53.429h-8.281v-53.429H-345.84z"/>
<path d="M-298.462,281.116v38.307h-8.281v-7.489c-2.592,5.329-7.417,7.705-13.681,7.777c-8.785,0-14.041-5.617-14.041-14.761
	v-23.834h8.281v21.53c0,5.76,3.384,9.289,8.929,9.289c6.625-0.144,10.513-5.256,10.513-11.953v-18.865H-298.462z"/>
<path d="M-249.718,265.995v53.429h-8.281v-6.553c-2.736,4.464-7.345,6.913-13.465,6.913c-11.017,0-18.362-7.993-18.362-19.658
	c0-11.521,7.417-19.37,18.218-19.37c6.192,0,10.801,2.521,13.609,6.985v-21.746H-249.718z M-257.999,300.414
	c0-7.417-4.825-12.601-11.737-12.601s-11.737,5.256-11.809,12.601c0.072,7.273,4.825,12.457,11.809,12.457
	C-262.823,312.871-257.999,307.687-257.999,300.414z"/>
<path d="M-200.759,300.198c0,11.593-8.137,19.514-19.945,19.514c-11.881,0-20.018-7.921-20.018-19.514
	c0-11.521,8.137-19.37,20.018-19.37C-208.896,280.828-200.759,288.677-200.759,300.198z M-232.441,300.342
	c0,7.417,4.825,12.457,11.737,12.457c6.841,0,11.665-5.041,11.665-12.457c0-7.345-4.824-12.457-11.665-12.457
	C-227.617,287.885-232.441,292.997-232.441,300.342z"/>
<path d="M-395.879,355.419v42.7h21.818v7.705h-30.314v-50.404H-395.879z M-374.061,355.419l-2.16,14.545h-5.616v-14.545H-374.061z"
	/>
<g>
	<path d="M50.46,748.848l6.697-4.537l-6.697-4.537v-7.344l10.801,7.776v8.209l-10.801,7.776V748.848z"/>
	<path d="M91.301,748.848l6.697-4.537l-6.697-4.537v-7.344l10.801,7.776v8.209l-10.801,7.776V748.848z"/>
	<path d="M72.753,783.281h22.712v4.91h-4.44c3.159,1.537,4.568,4.397,4.611,8.112c0,5.208-3.33,8.325-8.752,8.325H72.753v-4.91
		h12.765c3.415,0,5.507-2.007,5.507-5.294c-0.085-3.928-3.116-6.233-7.087-6.233H72.753V783.281z"/>
	<path d="M127.669,749.712v35.702h-5.533v-4.379c-1.828,2.983-4.908,4.619-8.998,4.619c-7.362,0-12.27-5.341-12.27-13.136
		c0-7.699,4.956-12.943,12.173-12.943c4.138,0,7.217,1.684,9.094,4.667v-14.531H127.669z M122.135,772.711
		c0-4.956-3.224-8.42-7.843-8.42s-7.843,3.512-7.891,8.42c0.048,4.86,3.224,8.324,7.891,8.324
		C118.911,781.035,122.135,777.571,122.135,772.711z"/>
	<path d="M59.348,772.078c0,7.176-5.037,12.079-12.346,12.079c-7.354,0-12.391-4.903-12.391-12.079
		c0-7.131,5.037-11.99,12.391-11.99C54.312,760.088,59.348,764.947,59.348,772.078z M39.737,772.167
		c0,4.591,2.986,7.711,7.265,7.711c4.234,0,7.221-3.12,7.221-7.711c0-4.546-2.986-7.711-7.221-7.711
		C42.723,764.456,39.737,767.621,39.737,772.167z"/>
	<path d="M79.363,740.352l-6.112,29.834l15.244,3.123l-1.103,5.383l-21.181-4.339l7.215-35.218L79.363,740.352z"/>
</g>
<g>
	<path d="M60.397,606.583l-4.537-6.697l-4.537,6.697H43.98l7.776-10.801h8.209l7.776,10.801H60.397z"/>
	<path d="M101.238,606.583l-4.537-6.697l-4.537,6.697h-7.344l7.776-10.801h8.209l7.776,10.801H101.238z"/>
	<path d="M94.868,639.383v22.712h-4.91v-4.44c-1.537,3.159-4.397,4.568-8.112,4.611c-5.208,0-8.325-3.33-8.325-8.752v-14.131h4.91
		v12.765c0,3.415,2.007,5.507,5.294,5.507c3.928-0.085,6.233-3.117,6.233-7.087v-11.185H94.868z"/>
	<path d="M127.669,606.583v35.702h-5.533v-4.379c-1.828,2.983-4.908,4.619-8.998,4.619c-7.362,0-12.27-5.341-12.27-13.136
		c0-7.699,4.956-12.943,12.173-12.943c4.138,0,7.217,1.684,9.094,4.667v-14.531H127.669z M122.135,629.582
		c0-4.956-3.224-8.42-7.843-8.42s-7.843,3.512-7.891,8.42c0.048,4.86,3.224,8.324,7.891,8.324
		C118.911,637.906,122.135,634.442,122.135,629.582z"/>
	<path d="M59.348,628.949c0,7.176-5.037,12.079-12.346,12.079c-7.354,0-12.391-4.903-12.391-12.079
		c0-7.131,5.037-11.99,12.391-11.99C54.312,616.959,59.348,621.817,59.348,628.949z M39.737,629.038
		c0,4.591,2.986,7.711,7.265,7.711c4.234,0,7.221-3.12,7.221-7.711c0-4.546-2.986-7.711-7.221-7.711
		C42.723,621.327,39.737,624.492,39.737,629.038z"/>
	<path d="M79.363,597.222l-6.112,29.834l15.244,3.123l-1.103,5.383l-21.181-4.339l7.215-35.218L79.363,597.222z"/>
</g>
<g>
	<path d="M51.324,456.277l4.537,6.697l4.537-6.697h7.344l-7.776,10.801h-8.209l-7.776-10.801H51.324z"/>
	<path d="M92.165,456.277l4.537,6.697l4.537-6.697h7.344l-7.776,10.801h-8.209l-7.776-10.801H92.165z"/>
	<path d="M73.522,522.762v-22.712h4.91v4.44c1.537-3.159,4.397-4.568,8.112-4.611c5.208,0,8.325,3.33,8.325,8.752v14.131h-4.91
		v-12.765c0-3.415-2.007-5.507-5.294-5.507c-3.928,0.085-6.233,3.116-6.233,7.087v11.185H73.522z"/>
	<path d="M127.669,467.078v35.702h-5.533v-4.379c-1.828,2.983-4.908,4.619-8.998,4.619c-7.362,0-12.27-5.341-12.27-13.136
		c0-7.698,4.956-12.943,12.173-12.943c4.138,0,7.217,1.684,9.094,4.667v-14.531H127.669z M122.135,490.077
		c0-4.956-3.224-8.42-7.843-8.42s-7.843,3.512-7.891,8.42c0.048,4.86,3.224,8.324,7.891,8.324
		C118.911,498.401,122.135,494.937,122.135,490.077z"/>
	<path d="M59.348,489.444c0,7.176-5.037,12.079-12.346,12.079c-7.354,0-12.391-4.903-12.391-12.079
		c0-7.131,5.037-11.99,12.391-11.99C54.312,477.454,59.348,482.313,59.348,489.444z M39.737,489.533
		c0,4.591,2.986,7.711,7.265,7.711c4.234,0,7.221-3.12,7.221-7.711c0-4.546-2.986-7.711-7.221-7.711
		C42.723,481.822,39.737,484.987,39.737,489.533z"/>
	<path d="M79.363,457.718l-6.112,29.834l15.244,3.123l-1.103,5.383l-21.181-4.339l7.215-35.218L79.363,457.718z"/>
</g>
<g>
	<path d="M51.96,327.96l6.697-4.537l-6.697-4.537v-7.344l10.801,7.776v8.209l-10.801,7.776V327.96z"/>
	<path d="M103.602,318.887l-6.697,4.537l6.697,4.537v7.344l-10.801-7.776v-8.209l10.801-7.776V318.887z"/>
	<path d="M80.152,360.429l16.06,16.06l-3.472,3.472l-3.14-3.14c1.147,3.321,0.121,6.339-2.475,8.996
		c-3.683,3.683-8.241,3.532-12.075-0.302l-9.992-9.992l3.472-3.472l9.026,9.026c2.415,2.415,5.313,2.475,7.637,0.151
		c2.717-2.838,2.204-6.611-0.604-9.419L76.68,363.9L80.152,360.429z"/>
	<path d="M126.169,331.824v35.702h-5.533v-4.379c-1.828,2.983-4.908,4.619-8.998,4.619c-7.362,0-12.27-5.341-12.27-13.136
		c0-7.699,4.956-12.943,12.173-12.943c4.138,0,7.217,1.684,9.094,4.667v-14.531H126.169z M120.635,354.823
		c0-4.956-3.224-8.42-7.843-8.42s-7.843,3.512-7.891,8.42c0.048,4.86,3.224,8.324,7.891,8.324
		C117.411,363.147,120.635,359.683,120.635,354.823z"/>
	<path d="M60.848,352.19c0,7.176-5.037,12.079-12.346,12.079c-7.354,0-12.391-4.903-12.391-12.079c0-7.131,5.037-11.99,12.391-11.99
		C55.812,340.2,60.848,345.058,60.848,352.19z M41.237,352.279c0,4.591,2.986,7.711,7.265,7.711c4.234,0,7.221-3.12,7.221-7.711
		c0-4.546-2.986-7.711-7.221-7.711C44.223,344.568,41.237,347.733,41.237,352.279z"/>
	<path d="M80.863,319.464l-6.112,29.834l15.244,3.123l-1.103,5.383l-21.181-4.339l7.215-35.218L80.863,319.464z"/>
</g>
<g>
	<path d="M61.261,180.872l-6.697,4.537l6.697,4.537v7.344l-10.801-7.776v-8.209l10.801-7.776V180.872z"/>
	<path d="M102.102,180.872l-6.697,4.537l6.697,4.537v7.344l-10.801-7.776v-8.209l10.801-7.776V180.872z"/>
	<path d="M89.868,224.61v22.712h-4.91v-4.44c-1.537,3.159-4.397,4.568-8.112,4.611c-5.208,0-8.325-3.33-8.325-8.752V224.61h4.91
		v12.765c0,3.415,2.007,5.507,5.294,5.507c3.928-0.085,6.233-3.116,6.233-7.087V224.61H89.868z"/>
	<path d="M127.669,190.809v35.702h-5.533v-4.379c-1.828,2.983-4.908,4.619-8.998,4.619c-7.362,0-12.27-5.341-12.27-13.136
		c0-7.699,4.956-12.943,12.173-12.943c4.138,0,7.217,1.684,9.094,4.667v-14.531H127.669z M122.135,213.808
		c0-4.956-3.224-8.42-7.843-8.42s-7.843,3.512-7.891,8.42c0.048,4.86,3.224,8.324,7.891,8.324
		C118.911,222.132,122.135,218.668,122.135,213.808z"/>
	<path d="M59.348,213.175c0,7.176-5.037,12.079-12.346,12.079c-7.354,0-12.391-4.903-12.391-12.079
		c0-7.131,5.037-11.99,12.391-11.99C54.312,201.185,59.348,206.044,59.348,213.175z M39.737,213.264
		c0,4.591,2.986,7.711,7.265,7.711c4.234,0,7.221-3.12,7.221-7.711c0-4.546-2.986-7.711-7.221-7.711
		C42.723,205.553,39.737,208.718,39.737,213.264z"/>
	<path d="M79.363,181.449l-6.112,29.834l15.244,3.123l-1.103,5.383l-21.181-4.339l7.215-35.218L79.363,181.449z"/>
</g>
<g>
	<path d="M49.039,37.263l4.537,6.697l4.537-6.697h7.344L57.68,48.064h-8.209l-7.776-10.801H49.039z"/>
	<path d="M89.879,37.263l4.537,6.697l4.537-6.697h7.344l-7.776,10.801h-8.209l-7.776-10.801H89.879z"/>
	<path d="M87.583,81.865v22.712h-4.91v-4.44c-1.537,3.159-4.397,4.568-8.112,4.611c-5.208,0-8.325-3.33-8.325-8.752V81.865h4.91
		V94.63c0,3.415,2.007,5.507,5.294,5.507c3.928-0.085,6.233-3.116,6.233-7.087V81.865H87.583z"/>
	<path d="M129.954,79.435H94.252v-5.533h4.379c-2.983-1.828-4.619-4.908-4.619-8.998c0-7.362,5.341-12.27,13.136-12.27
		c7.699,0,12.943,4.956,12.943,12.173c0,4.138-1.684,7.217-4.667,9.094h14.531V79.435z M106.955,73.902
		c4.956,0,8.42-3.224,8.42-7.843s-3.512-7.843-8.42-7.891c-4.86,0.048-8.324,3.224-8.324,7.891
		C98.631,70.678,102.095,73.902,106.955,73.902z"/>
	<path d="M57.063,70.43c0,7.176-5.037,12.079-12.346,12.079c-7.354,0-12.391-4.903-12.391-12.079c0-7.131,5.037-11.99,12.391-11.99
		C52.026,58.44,57.063,63.299,57.063,70.43z M37.452,70.519c0,4.591,2.986,7.711,7.265,7.711c4.234,0,7.221-3.12,7.221-7.711
		c0-4.546-2.986-7.711-7.221-7.711C40.438,62.808,37.452,65.973,37.452,70.519z"/>
	<path d="M77.078,38.704l-6.112,29.834l15.244,3.123l-1.103,5.383l-21.181-4.339l7.215-35.218L77.078,38.704z"/>
</g>
<path d="M-344.902,398.551c8.208,0,13.321-5.041,13.321-13.609v-29.522h8.497v29.522c0,13.177-8.281,21.242-21.89,21.242
	c-13.609,0-21.962-8.064-21.962-21.242v-29.522h8.497v29.522C-358.439,393.438-353.183,398.551-344.902,398.551z"/>
<path d="M-264.188,380.621c0,14.545-11.017,25.202-26.282,25.202h-20.45v-50.404h20.666
	C-275.133,355.419-264.188,366.004-264.188,380.621z M-272.757,380.693c0-10.297-7.705-17.641-17.642-17.641h-12.025v35.139h12.385
	C-280.246,398.19-272.757,390.918-272.757,380.693z"/>
<path d="M-207.885,380.621c0,14.401-11.665,25.562-26.714,25.562s-26.714-11.161-26.714-25.562
	c0-14.473,11.665-25.418,26.714-25.418S-207.885,366.22-207.885,380.621z M-252.672,380.621c0,10.009,8.281,17.93,18.146,17.93
	c9.865,0,17.93-7.921,17.93-17.93s-8.065-17.786-17.93-17.786C-244.463,362.835-252.672,370.612-252.672,380.621z"/>
<path d="M-369.957,441.819v7.633h-15.985v42.771h-8.497v-42.771h-15.914v-7.633H-369.957z"/>
<path d="M-359.952,441.819l15.553,40.972l15.697-40.972h8.857l-20.378,50.404h-8.785l-20.09-50.404H-359.952z"/>
<path d="M-264.044,467.021c0,14.401-11.665,25.563-26.714,25.563s-26.714-11.161-26.714-25.563
	c0-14.473,11.665-25.418,26.714-25.418S-264.044,452.62-264.044,467.021z M-308.832,467.021c0,10.009,8.281,17.93,18.146,17.93
	c9.865,0,17.93-7.921,17.93-17.93s-8.064-17.785-17.93-17.785C-300.623,449.236-308.832,457.013-308.832,467.021z"/>
<path d="M-223.006,492.224l-9.217-15.265c-0.72,0.071-1.512,0.071-2.304,0.071h-11.953v15.193h-8.497v-50.404h20.45
	c12.889,0,20.306,6.265,20.306,17.21c0,8.064-3.744,13.752-10.441,16.345l11.305,16.85H-223.006z M-234.527,469.397
	c7.777,0,12.241-3.312,12.241-10.153c0-6.624-4.464-9.792-12.241-9.792h-11.953v19.945H-234.527z"/>
<path d="M-181.752,489.775c-3.023,1.8-6.192,2.809-9.433,2.809c-5.76,0-10.729-3.313-10.729-11.161v-19.874h-5.4v-6.192h5.4v-10.513
	h8.209v10.513h11.305v6.192h-11.305v18.361c0,3.961,1.512,5.186,4.104,5.186c1.729,0,3.528-0.576,5.761-1.656L-181.752,489.775z"/>
<path d="M-171.529,453.916l10.657,30.171l10.513-30.171h8.28l-14.689,38.308h-8.568l-14.833-38.308H-171.529z"/>
<path d="M-101.397,472.998c0,11.593-8.137,19.514-19.945,19.514c-11.881,0-20.018-7.921-20.018-19.514
	c0-11.521,8.137-19.369,20.018-19.369C-109.534,453.629-101.397,461.477-101.397,472.998z M-133.08,473.143
	c0,7.416,4.824,12.457,11.737,12.457c6.841,0,11.665-5.041,11.665-12.457c0-7.346-4.824-12.457-11.665-12.457
	C-128.256,460.686-133.08,465.797-133.08,473.143z"/>
<path d="M-71.23,453.629v7.92c-7.705-0.432-12.602,4.104-13.249,10.657v20.018h-8.281v-38.308h8.281v7.633
	C-81.888,456.365-77.279,453.629-71.23,453.629z"/>
</svg>
